<svg xmlns="http://www.w3.org/2000/svg" version="1.1" xmlns:xlink="http://www.w3.org/1999/xlink" xmlns:svgjs="http://svgjs.dev/svgjs" width="2000" height="900" preserveAspectRatio="none" viewBox="0 0 2000 900"><g mask="url(&quot;#SvgjsMask1096&quot;)" fill="none"><rect width="2000" height="900" x="0" y="0" fill="url(&quot;#SvgjsLinearGradient1097&quot;)"></rect><path d="M2000 0L1274.69 0L2000 225.13z" fill="rgba(255, 255, 255, .1)"></path><path d="M1274.69 0L2000 225.13L2000 487.59L1069.66 0z" fill="rgba(255, 255, 255, .075)"></path><path d="M1069.66 0L2000 487.59L2000 553.98L1036.14 0z" fill="rgba(255, 255, 255, .05)"></path><path d="M1036.14 0L2000 553.98L2000 612.13L915.1600000000001 0z" fill="rgba(255, 255, 255, .025)"></path><path d="M0 900L877.23 900L0 869.12z" fill="rgba(0, 0, 0, .1)"></path><path d="M0 869.12L877.23 900L964.65 900L0 815.24z" fill="rgba(0, 0, 0, .075)"></path><path d="M0 815.24L964.65 900L1589.32 900L0 414.48z" fill="rgba(0, 0, 0, .05)"></path><path d="M0 414.48L1589.32 900L1802.32 900L0 395.92z" fill="rgba(0, 0, 0, .025)"></path></g><defs><mask id="SvgjsMask1096"><rect width="2000" height="900" fill="#ffffff"></rect></mask><linearGradient x1="0%" y1="50%" x2="100%" y2="50%" gradientUnits="userSpaceOnUse" id="SvgjsLinearGradient1097"><stop stop-color="rgba(245, 166, 35, 1)" offset="0"></stop><stop stop-color="rgba(85, 180, 118, 1)" offset="0.5"></stop><stop stop-color="rgba(27, 169, 194, 1)" offset="1"></stop></linearGradient></defs></svg>